# xmcd
#
# Track frame offsets: 
#        150
#        18340
#        36875
#        58516
#        78858
#        100620
#        116492
#        135998
#        158652
#        186560
#
# Disc length: 2612 seconds
#
# Revision: 0
# Processed by: cddbd v1.4PL0 Copyright (c) Steve Scherf et al.
# Submitted via: ExactAudioCopy v0.90a11
#
DISCID=720a320a
DTITLE=Chris de Burgh - Far beyond these castle walls
DYEAR=1900
DGENRE=
TTITLE0=Hold on
TTITLE1=The key
TTITLE2=Windy Night
TTITLE3=Sin city
TTITLE4=New Moon
TTITLE5=Watching the world
TTITLE6=Lonesome cowboy
TTITLE7=Satin green shutters
TTITLE8=Turning round
TTITLE9=Goodnight
EXTD=
EXTT0=
EXTT1=
EXTT2=
EXTT3=
EXTT4=
EXTT5=
EXTT6=
EXTT7=
EXTT8=
EXTT9=
PLAYORDER=
